# xmcd CD database file
#
# Track frame offsets:
#	150
#	651
#	17921
#	33913
#	45665
#	59661
#	81311
#	98096
#	116983
#	145908
#	163430
#
# Disc length: 2661 seconds
#
# Revision: 2
# Processed by: cddbd v1.4PL0 Copyright (c) Steve Scherf et al.
# Submitted via: CDex 1.40Beta9
#
DISCID=970a630b
DTITLE=楊千嬅 - Play It Loud | avep 2
DYEAR=2000
DGENRE=Pop
TTITLE0=電腦檔案, 縛能播放 ( computer data, not playable )
TTITLE1=如果東京縛快樂
TTITLE2=少女的祈禱
TTITLE3=個個都有寶
TTITLE4=內有惡女
TTITLE5=吹牛娃娃
TTITLE6=放煙花
TTITLE7=離題萬丈
TTITLE8=放煙花 ( Mass Production Mix )
TTITLE9=內有惡女 ( LMF Mix )
TTITLE10=新世紀福音戰瞥 ( Air MAx Mix )
EXTD=YEAR: 2000 ID3G: 13
EXTT0=
EXTT1=
EXTT2=
EXTT3=
EXTT4=
EXTT5=
EXTT6=
EXTT7=
EXTT8=
EXTT9=
EXTT10=
PLAYORDER=
